<?xml version="1.0" encoding="utf-8"?>
<!-- Generator: Adobe Illustrator 23.0.3, SVG Export Plug-In . SVG Version: 6.00 Build 0)  -->
<svg version="1.1" id="Capa_1" xmlns="http://www.w3.org/2000/svg" xmlns:xlink="http://www.w3.org/1999/xlink" x="0px" y="0px"
	 viewBox="0 0 841.89 595.28" style="enable-background:new 0 0 841.89 595.28;" xml:space="preserve">
<style type="text/css">
	.st0{fill:#FFFFFF;}
</style>
<path class="st0" d="M621.29,365.37c8.87-24.06,13.72-50.04,13.72-77.13c0-123.33-100.33-223.66-223.66-223.66
	S187.69,164.91,187.69,288.23c0,29.13,5.66,56.96,15.84,82.5c0.22,0.67,0.48,1.32,0.78,1.96c33.4,81.56,113.6,139.19,207.05,139.19
	c95.77,0,177.64-60.52,209.46-145.31C620.98,366.18,621.14,365.78,621.29,365.37z M600.26,288.23c0,10.32-0.86,20.43-2.46,30.3
	L449.92,103.29C535.65,121.15,600.26,197.28,600.26,288.23z M414.22,112.67l70.02,101.93l-70.47,90.84l-71.06-88.42L414.22,112.67z
	 M379.35,102.08L226.16,325.61c-2.44-12.09-3.73-24.58-3.73-37.38C222.43,194.97,290.38,117.33,379.35,102.08z M411.35,477.15
	c-75.99,0-141.6-45.12-171.56-109.96l82.4-120.24l78.27,97.4c3.3,4.11,8.28,6.49,13.54,6.49c0.05,0,0.1,0,0.15,0
	c5.32-0.05,10.32-2.52,13.58-6.72l77.16-99.45l80.46,117.12C556.62,429.52,489.44,477.15,411.35,477.15z"/>
</svg>
