<?xml version="1.0" encoding="utf-8"?>
<!-- Generator: Adobe Illustrator 23.0.3, SVG Export Plug-In . SVG Version: 6.00 Build 0)  -->
<svg version="1.1" id="logo" xmlns="http://www.w3.org/2000/svg" xmlns:xlink="http://www.w3.org/1999/xlink" x="0px" y="0px"
	 viewBox="0 0 286 286" style="enable-background:new 0 0 286 286;" xml:space="preserve">
<style type="text/css">
	.st0{fill:#009CA6;}
</style>
<path id="entero" class="st0" d="M273.9,191.1c5.5-15,8.6-31.2,8.6-48.1C282.5,66.1,219.9,3.5,143,3.5S3.5,66.1,3.5,143
	c0,18.2,3.5,35.5,9.9,51.5c0.1,0.4,0.3,0.8,0.5,1.2c20.8,50.9,70.9,86.8,129.1,86.8c59.7,0,110.8-37.7,130.6-90.6
	C273.8,191.6,273.9,191.4,273.9,191.1z M260.8,143c0,6.4-0.5,12.7-1.5,18.9L167.1,27.7C220.5,38.8,260.8,86.3,260.8,143z
	 M144.8,33.5l43.7,63.6l-44,56.7l-44.3-55.1L144.8,33.5z M123,26.9L27.5,166.3c-1.5-7.5-2.3-15.3-2.3-23.3
	C25.2,84.8,67.5,36.4,123,26.9z M143,260.8c-47.4,0-88.3-28.1-107-68.6l51.4-75l48.8,60.7c2.1,2.6,5.2,4,8.4,4c0,0,0.1,0,0.1,0
	c3.3,0,6.4-1.6,8.5-4.2l48.1-62l50.2,73C233.6,231.1,191.7,260.8,143,260.8z"/>
</svg>
