<?xml version="1.0" encoding="utf-8"?>
<!-- Generator: Adobe Illustrator 23.0.3, SVG Export Plug-In . SVG Version: 6.00 Build 0)  -->
<svg version="1.1" id="Capa_1" xmlns="http://www.w3.org/2000/svg" xmlns:xlink="http://www.w3.org/1999/xlink" x="0px" y="0px"
	 viewBox="0 0 447.32 447.32" style="enable-background:new 0 0 447.32 447.32;" xml:space="preserve">
<style type="text/css">
	.st0{fill:#009CA6;}
</style>
<path class="st0" d="M433.6,300.79c8.87-24.06,13.72-50.04,13.72-77.13C447.32,100.33,346.98,0,223.66,0S0,100.33,0,223.66
	c0,29.13,5.66,56.96,15.84,82.5c0.22,0.67,0.48,1.32,0.78,1.96c33.4,81.56,113.6,139.19,207.05,139.19
	c95.77,0,177.64-60.52,209.46-145.31C433.3,301.61,433.46,301.21,433.6,300.79z M412.57,223.66c0,10.32-0.86,20.43-2.46,30.3
	L262.23,38.72C347.96,56.57,412.57,132.71,412.57,223.66z M226.53,48.1l70.02,101.93l-70.47,90.84l-71.06-88.42L226.53,48.1z
	 M191.67,37.51L38.47,261.04c-2.44-12.09-3.73-24.58-3.73-37.38C34.74,130.4,102.69,52.76,191.67,37.51z M223.66,412.58
	c-75.99,0-141.6-45.12-171.56-109.96l82.4-120.24l78.27,97.4c3.3,4.11,8.28,6.49,13.54,6.49c0.05,0,0.1,0,0.15,0
	c5.32-0.05,10.32-2.52,13.58-6.72l77.16-99.45l80.46,117.12C368.93,364.94,301.75,412.58,223.66,412.58z"/>
</svg>
