<?xml version="1.0" encoding="utf-8"?>
<!-- Generator: Adobe Illustrator 23.0.3, SVG Export Plug-In . SVG Version: 6.00 Build 0)  -->
<svg version="1.1" id="Capa_1" xmlns="http://www.w3.org/2000/svg" xmlns:xlink="http://www.w3.org/1999/xlink" x="0px" y="0px"
	 viewBox="0 0 2894.2 447.3" style="enable-background:new 0 0 2894.2 447.3;" xml:space="preserve">
<style type="text/css">
	.st0{fill:#009CA6;}
</style>
<g>
	<path class="st0" d="M1657,300.8c8.9-24.1,13.7-50,13.7-77.1C1670.8,100.3,1570.4,0,1447.1,0s-223.7,100.3-223.7,223.7
		c0,29.1,5.7,57,15.8,82.5c0.2,0.7,0.5,1.3,0.8,2c33.4,81.6,113.6,139.2,207,139.2c95.8,0,177.6-60.5,209.5-145.3
		C1656.7,301.6,1656.9,301.2,1657,300.8z M1636,223.7c0,10.3-0.9,20.4-2.5,30.3L1485.7,38.7C1571.4,56.6,1636,132.7,1636,223.7z
		 M1450,48.1l70,101.9l-70.5,90.8l-71.1-88.4L1450,48.1z M1415.1,37.5L1261.9,261c-2.4-12.1-3.7-24.6-3.7-37.4
		C1258.2,130.4,1326.1,52.8,1415.1,37.5z M1447.1,412.6c-76,0-141.6-45.1-171.6-110l82.4-120.2l78.3,97.4c3.3,4.1,8.3,6.5,13.5,6.5
		c0.1,0,0.1,0,0.2,0c5.3,0,10.3-2.5,13.6-6.7l77.2-99.5l80.5,117.1C1592.4,364.9,1525.2,412.6,1447.1,412.6z"/>
</g>
<g>
	<rect y="208.7" class="st0" width="1037.6" height="30"/>
</g>
<g>
	<rect x="1856.6" y="207.7" class="st0" width="1037.6" height="30"/>
</g>
</svg>
