<?xml version="1.0" encoding="utf-8"?>
<!-- Generator: Adobe Illustrator 23.0.3, SVG Export Plug-In . SVG Version: 6.00 Build 0)  -->
<svg version="1.1" id="Capa_1" xmlns="http://www.w3.org/2000/svg" xmlns:xlink="http://www.w3.org/1999/xlink" x="0px" y="0px"
	 viewBox="0 0 447.3 447.3" style="enable-background:new 0 0 447.3 447.3;" xml:space="preserve">
<style type="text/css">
	.st0{fill:#009CA6;}
</style>
<g>
	<path class="st0" d="M433.6,300.8c8.9-24.1,13.7-50,13.7-77.1C447.4,100.3,347,0,223.7,0S0,100.3,0,223.7c0,29.1,5.7,57,15.8,82.5
		c0.2,0.7,0.5,1.3,0.8,2c33.4,81.6,113.6,139.2,207,139.2c95.8,0,177.6-60.5,209.5-145.3C433.3,301.6,433.5,301.2,433.6,300.8z
		 M412.6,223.7c0,10.3-0.9,20.4-2.5,30.3L262.3,38.7C348,56.6,412.6,132.7,412.6,223.7z M226.6,48.1l70,101.9l-70.5,90.8L155,152.4
		L226.6,48.1z M191.7,37.5L38.5,261c-2.4-12.1-3.7-24.6-3.7-37.4C34.8,130.4,102.7,52.8,191.7,37.5z M223.7,412.6
		c-76,0-141.6-45.1-171.6-110l82.4-120.2l78.3,97.4c3.3,4.1,8.3,6.5,13.5,6.5c0.1,0,0.1,0,0.2,0c5.3,0,10.3-2.5,13.6-6.7l77.2-99.5
		l80.5,117.1C369,364.9,301.8,412.6,223.7,412.6z"/>
</g>
<g>
	<path class="st0" d="M104.1,311.1c-1.2,0-2.3-0.1-3.1-0.4c-1.4-0.5-2.4-1.2-3-2.1c-0.6-1-0.9-2.3-0.9-4V300c0-2.3,0.6-4,1.8-5.2
		c1.2-1.2,2.8-1.8,4.6-1.8c1.5,0,3.1,0.4,4.6,1.1l-0.9,2.6c-1.1-0.5-2.2-0.7-3.2-0.7c-1.2,0-2.1,0.3-2.8,1c-0.7,0.7-1,1.6-1,2.8v5
		c0,1.1,0.4,1.9,1.1,2.4c0.8,0.5,1.7,0.7,2.9,0.7c1,0,2.1-0.2,3.1-0.5l0.8,3C106.8,310.9,105.4,311.1,104.1,311.1z"/>
	<path class="st0" d="M123.1,309.2c-1.1,1.3-2.7,1.9-4.8,1.9s-3.8-0.6-4.9-1.9c-1.1-1.3-1.6-2.9-1.6-4.8v-4.6c0-2.2,0.6-3.9,1.7-5
		c1.1-1.2,2.7-1.8,4.8-1.8c2,0,3.6,0.6,4.7,1.8c1.1,1.2,1.7,2.9,1.7,5v4.6C124.7,306.3,124.2,307.9,123.1,309.2z M118.3,296.1
		c-1,0-1.8,0.3-2.4,0.8c-0.6,0.6-0.9,1.5-0.9,2.8v4.9c0,1.1,0.3,1.9,0.9,2.5c0.6,0.6,1.4,0.9,2.4,0.9c1,0,1.8-0.3,2.4-0.9
		c0.6-0.6,0.9-1.4,0.9-2.5v-4.9C121.6,297.3,120.5,296.1,118.3,296.1z"/>
	<path class="st0" d="M135.2,311.1c-2.4,0-4.4-0.5-5.8-1.4c-1.4-0.9-2.2-2.5-2.2-4.9V302c0-2.3,0.8-3.8,2.4-4.6
		c0.8-0.4,1.7-0.6,2.7-0.6c0.9,0,1.9,0.1,2.8,0.4c0.9,0.3,1.7,0.6,2.3,1c0-1-0.4-1.7-1.1-2.2c-0.7-0.5-1.8-0.7-3.2-0.7l0.2-2.2
		c2.2,0,3.9,0.4,4.9,1.1c1.1,0.7,1.7,1.5,1.9,2.5c0.2,1,0.4,2.2,0.4,3.7v10.3C138.2,311,136.4,311.1,135.2,311.1z M135.3,300.4
		c-0.9-0.3-1.7-0.4-2.4-0.4c-1.6,0-2.5,0.8-2.5,2.3v2.3c0,2.4,1.5,3.6,4.6,3.6c0.7,0,1.6-0.1,2.5-0.2v-6.6
		C136.9,301,136.2,300.7,135.3,300.4z"/>
	<path class="st0" d="M150.2,311.1c-1.2,0-2.3-0.1-3.1-0.4c-1.4-0.5-2.4-1.2-3-2.1c-0.6-1-0.9-2.3-0.9-4V300c0-2.3,0.6-4,1.8-5.2
		c1.2-1.2,2.8-1.8,4.6-1.8c1.5,0,3.1,0.4,4.6,1.1l-0.9,2.6c-1.1-0.5-2.2-0.7-3.2-0.7c-1.2,0-2.1,0.3-2.8,1c-0.7,0.7-1,1.6-1,2.8v5
		c0,1.1,0.4,1.9,1.1,2.4c0.8,0.5,1.7,0.7,2.9,0.7c1,0,2.1-0.2,3.1-0.5l0.8,3C152.9,310.9,151.5,311.1,150.2,311.1z"/>
	<path class="st0" d="M165.9,299.6c0-1.3-0.3-2.2-1-2.8c-0.6-0.6-1.5-0.8-2.4-0.8c-0.6,0-1.1,0.1-1.7,0.2s-1,0.3-1.4,0.6v13.9h-3.2
		v-24.3h3.2v7.3c0.4-0.2,0.9-0.4,1.5-0.5s1.3-0.2,1.9-0.2c1.2,0,2.3,0.2,3.3,0.7c0.9,0.4,1.6,1,2.2,1.9c0.5,0.8,0.8,1.9,0.8,3.2v12
		h-3.2V299.6z"/>
	<path class="st0" d="M174.4,289c-0.4-0.4-0.5-0.8-0.5-1.2c0-0.4,0.2-0.8,0.5-1.2c0.4-0.3,0.8-0.5,1.2-0.5c0.5,0,0.9,0.2,1.2,0.5
		c0.3,0.3,0.5,0.7,0.5,1.2s-0.2,0.9-0.5,1.2c-0.3,0.4-0.7,0.5-1.2,0.5C175.1,289.6,174.7,289.4,174.4,289z M173.9,293.4h3.2v17.4
		h-3.2V293.4z"/>
	<path class="st0" d="M191.9,299.5c0-1.1-0.3-1.9-1-2.5c-0.7-0.6-1.5-0.9-2.5-0.9c-1.1,0-2.1,0.3-3,0.8v13.9h-3.1v-17.4h2.9l0.2,0.6
		c0.5-0.3,1-0.5,1.7-0.6c0.6-0.2,1.3-0.2,2-0.2c1.2,0,2.2,0.2,3.1,0.6c0.9,0.4,1.6,1,2.2,1.9c0.5,0.8,0.8,1.9,0.8,3.2v12h-3.2V299.5
		z"/>
	<path class="st0" d="M208.6,312.5v-2.7c-0.3,0.4-0.7,0.7-1.3,1c-0.6,0.3-1.3,0.4-2.2,0.4c-2,0-3.6-0.6-4.8-1.7s-1.7-2.7-1.7-4.9
		v-5.2c0-2,0.6-3.6,1.8-4.7c1.2-1.1,2.8-1.7,4.8-1.7c0.8,0,1.5,0.1,2.1,0.3s1,0.5,1.3,0.9l0.4-0.9h2.7V313c0,1.5-0.4,2.7-1.1,3.6
		c-0.8,0.9-2,1.4-3.7,1.5l-0.8-2.5C207.8,315.3,208.6,314.3,208.6,312.5z M207.7,297c-0.6-0.6-1.5-0.9-2.6-0.9c-1,0-1.9,0.3-2.4,0.9
		c-0.6,0.6-0.9,1.5-0.9,2.6v4.8c0,1.2,0.3,2.1,0.8,2.7c0.5,0.7,1.4,1,2.5,1c1.2,0,2.1-0.4,2.6-1.2c0.6-0.8,0.9-2,0.9-3.5v-3.9
		C208.6,298.5,208.3,297.6,207.7,297z"/>
	<path class="st0" d="M223.5,310.7c-1.1,0.3-2.1,0.4-3.2,0.4c-1.7,0-3.1-0.4-4.1-1.3c-1-0.8-1.5-2.1-1.5-3.8V299
		c0-1.9,0.6-3.3,1.8-4.4c1.2-1,2.7-1.6,4.6-1.6c1.9,0,3.4,0.5,4.5,1.5c1.1,1,1.6,2.5,1.6,4.3v5l-9.3,0.5v1.4c0,0.8,0.2,1.4,0.7,1.9
		s1.1,0.6,2,0.6c1.3,0,2.8-0.5,4.5-1.4l1.2,2.7C225.5,310.1,224.5,310.5,223.5,310.7z M223.1,296.7c-0.6-0.5-1.3-0.7-2-0.7
		c-1,0-1.8,0.3-2.3,0.8s-0.8,1.3-0.8,2.1v2.4l6.1-0.3v-2.3C224,297.9,223.7,297.2,223.1,296.7z"/>
	<path class="st0" d="M237.2,305.2l-3.5,5.6h-3.9l5.4-8.6l-5.4-8.7h3.9l3.5,5.7l3.6-5.7h3.8l-5.5,8.7l5.3,8.7h-3.7L237.2,305.2z"/>
	<path class="st0" d="M249.1,289c-0.4-0.4-0.5-0.8-0.5-1.2c0-0.4,0.2-0.8,0.5-1.2c0.4-0.3,0.8-0.5,1.2-0.5s0.9,0.2,1.2,0.5
		s0.5,0.7,0.5,1.2s-0.2,0.9-0.5,1.2c-0.3,0.4-0.7,0.5-1.2,0.5C249.9,289.6,249.5,289.4,249.1,289z M248.7,293.4h3.2v17.4h-3.2V293.4
		z"/>
	<path class="st0" d="M260.2,307.7c0.6,0.4,1.4,0.6,2.3,0.6c0.9,0,1.6-0.2,2.1-0.6s0.9-1,0.9-1.6c0-0.8-0.3-1.4-0.9-1.8
		c-0.6-0.4-1.5-0.8-2.8-1.2c-1-0.3-1.9-0.7-2.6-1c-0.7-0.3-1.3-0.8-1.8-1.4c-0.5-0.6-0.8-1.4-0.9-2.4c-0.1-0.8,0.1-1.6,0.5-2.4
		s1-1.5,1.9-2c0.9-0.5,2.1-0.8,3.5-0.8c0.7,0,1.4,0.1,2,0.2c0.6,0.2,1,0.3,1.3,0.5s0.5,0.3,0.6,0.3l-0.9,2.8c0,0-0.2-0.1-0.4-0.3
		c-0.2-0.1-0.6-0.3-1-0.4s-0.9-0.2-1.5-0.2c-1,0-1.7,0.2-2.1,0.6c-0.4,0.4-0.6,0.9-0.5,1.5c0.1,0.5,0.4,0.8,0.9,1.1s1.3,0.6,2.3,1
		c1.2,0.4,2.2,0.8,2.9,1.2c0.8,0.4,1.4,1,2,1.7c0.6,0.8,0.8,1.7,0.8,2.9c0,1.5-0.5,2.7-1.6,3.7c-1.1,1-2.6,1.5-4.7,1.5
		c-1.3,0-2.5-0.2-3.4-0.7s-1.7-1-2.2-1.8c-0.5-0.7-0.8-1.6-0.8-2.5l3.1-0.2C259.2,306.7,259.6,307.2,260.2,307.7z"/>
	<path class="st0" d="M272.4,309.7c-0.7-0.9-1.1-2-1.1-3.5v-19.7h3.2v6.9h3.6l-0.8,3h-2.8v9.8c0,0.8,0.2,1.4,0.6,1.8
		c0.4,0.4,1,0.6,1.8,0.7l-0.9,2.5C274.3,311,273.1,310.5,272.4,309.7z"/>
	<path class="st0" d="M288.9,310.7c-1.1,0.3-2.1,0.4-3.2,0.4c-1.7,0-3.1-0.4-4.1-1.3c-1-0.8-1.5-2.1-1.5-3.8V299
		c0-1.9,0.6-3.3,1.8-4.4c1.2-1,2.7-1.6,4.6-1.6s3.4,0.5,4.5,1.5c1.1,1,1.6,2.5,1.6,4.3v5l-9.3,0.5v1.4c0,0.8,0.2,1.4,0.7,1.9
		c0.5,0.4,1.1,0.6,2,0.6c1.3,0,2.8-0.5,4.5-1.4l1.2,2.7C290.9,310.1,289.9,310.5,288.9,310.7z M288.5,296.7c-0.6-0.5-1.3-0.7-2-0.7
		c-1,0-1.8,0.3-2.3,0.8c-0.6,0.5-0.8,1.3-0.8,2.1v2.4l6.1-0.3v-2.3C289.4,297.9,289.1,297.2,288.5,296.7z"/>
	<path class="st0" d="M305.8,299.5c0-1.1-0.3-1.9-1-2.5c-0.7-0.6-1.5-0.9-2.5-0.9c-1.1,0-2.1,0.3-3,0.8v13.9h-3.1v-17.4h2.9l0.2,0.6
		c0.5-0.3,1-0.5,1.7-0.6s1.3-0.2,2-0.2c1.2,0,2.2,0.2,3.1,0.6c0.9,0.4,1.6,1,2.2,1.9c0.5,0.8,0.8,1.9,0.8,3.2v12h-3.2V299.5z"/>
	<path class="st0" d="M319.6,311.1c-1.2,0-2.3-0.1-3.1-0.4c-1.4-0.5-2.4-1.2-3-2.1c-0.6-1-0.9-2.3-0.9-4V300c0-2.3,0.6-4,1.8-5.2
		c1.2-1.2,2.8-1.8,4.6-1.8c1.5,0,3.1,0.4,4.6,1.1l-0.9,2.6c-1.1-0.5-2.2-0.7-3.2-0.7c-1.2,0-2.1,0.3-2.8,1c-0.7,0.7-1,1.6-1,2.8v5
		c0,1.1,0.4,1.9,1.1,2.4c0.8,0.5,1.7,0.7,2.9,0.7c1,0,2.1-0.2,3.1-0.5l0.8,3C322.3,310.9,320.9,311.1,319.6,311.1z"/>
	<path class="st0" d="M327.8,289c-0.4-0.4-0.5-0.8-0.5-1.2c0-0.4,0.2-0.8,0.5-1.2c0.4-0.3,0.8-0.5,1.2-0.5s0.9,0.2,1.2,0.5
		s0.5,0.7,0.5,1.2s-0.2,0.9-0.5,1.2c-0.3,0.4-0.7,0.5-1.2,0.5C328.6,289.6,328.2,289.4,327.8,289z M327.4,293.4h3.2v17.4h-3.2V293.4
		z"/>
	<path class="st0" d="M342.8,311.1c-2.4,0-4.4-0.5-5.8-1.4c-1.4-0.9-2.2-2.5-2.2-4.9V302c0-2.3,0.8-3.8,2.4-4.6
		c0.8-0.4,1.7-0.6,2.7-0.6c0.9,0,1.9,0.1,2.8,0.4s1.7,0.6,2.3,1c0-1-0.4-1.7-1.1-2.2c-0.7-0.5-1.8-0.7-3.2-0.7l0.2-2.2
		c2.2,0,3.9,0.4,4.9,1.1c1.1,0.7,1.7,1.5,1.9,2.5c0.2,1,0.4,2.2,0.4,3.7v10.3C345.7,311,343.9,311.1,342.8,311.1z M342.8,300.4
		c-0.9-0.3-1.7-0.4-2.4-0.4c-1.6,0-2.5,0.8-2.5,2.3v2.3c0,2.4,1.5,3.6,4.6,3.6c0.7,0,1.6-0.1,2.5-0.2v-6.6
		C344.4,301,343.7,300.7,342.8,300.4z"/>
	<path class="st0" d="M352.1,286.4h3.2v24.3h-3.2V286.4z"/>
	<path class="st0" d="M111.2,366.8c-3.2,0-5.8-0.6-7.7-1.8c-1.9-1.2-2.9-3.4-2.9-6.5v-3.8c0-3.1,1.1-5.1,3.2-6.2
		c1-0.5,2.2-0.7,3.6-0.7c1.2,0,2.5,0.2,3.7,0.6c1.3,0.4,2.3,0.8,3.1,1.3c0-1.3-0.5-2.3-1.5-2.9c-1-0.6-2.4-1-4.3-1l0.3-3
		c3,0,5.1,0.5,6.5,1.4c1.4,0.9,2.3,2.1,2.6,3.4c0.3,1.3,0.5,3,0.5,5v13.8C115.1,366.6,112.7,366.8,111.2,366.8z M111.3,352.5
		c-1.1-0.4-2.2-0.6-3.2-0.6c-2.2,0-3.3,1-3.3,3.1v3.1c0,3.2,2,4.8,6.1,4.8c1,0,2.1-0.1,3.3-0.3v-8.8
		C113.4,353.3,112.4,352.9,111.3,352.5z"/>
	<path class="st0" d="M135.9,351.2c0-1.5-0.4-2.6-1.3-3.4c-0.9-0.8-2-1.1-3.4-1.1c-1.4,0-2.8,0.3-4,1v18.5H123v-23.2h3.8l0.3,0.7
		c0.6-0.3,1.4-0.6,2.2-0.8c0.9-0.2,1.8-0.3,2.7-0.3c1.6,0,2.9,0.3,4.1,0.8c1.2,0.6,2.2,1.4,2.9,2.5c0.7,1.1,1,2.5,1,4.2v16h-4.2
		V351.2z"/>
	<path class="st0" d="M159,351.2c0-1.5-0.4-2.6-1.3-3.4c-0.9-0.8-2-1.1-3.4-1.1c-1.4,0-2.8,0.3-4,1v18.5h-4.2v-23.2h3.8l0.3,0.7
		c0.6-0.3,1.4-0.6,2.2-0.8c0.9-0.2,1.8-0.3,2.7-0.3c1.6,0,2.9,0.3,4.1,0.8c1.2,0.6,2.2,1.4,2.9,2.5c0.7,1.1,1,2.5,1,4.2v16H159
		V351.2z"/>
	<path class="st0" d="M178.6,366.8c-3.2,0-5.8-0.6-7.7-1.8c-1.9-1.2-2.9-3.4-2.9-6.5v-3.8c0-3.1,1.1-5.1,3.2-6.2
		c1-0.5,2.2-0.7,3.6-0.7c1.2,0,2.5,0.2,3.7,0.6c1.3,0.4,2.3,0.8,3.1,1.3c0-1.3-0.5-2.3-1.5-2.9c-1-0.6-2.4-1-4.3-1l0.3-3
		c3,0,5.1,0.5,6.5,1.4c1.4,0.9,2.3,2.1,2.6,3.4c0.3,1.3,0.5,3,0.5,5v13.8C182.5,366.6,180.1,366.8,178.6,366.8z M178.7,352.5
		c-1.1-0.4-2.2-0.6-3.2-0.6c-2.2,0-3.3,1-3.3,3.1v3.1c0,3.2,2,4.8,6.1,4.8c1,0,2.1-0.1,3.3-0.3v-8.8
		C180.8,353.3,179.9,352.9,178.7,352.5z"/>
	<path class="st0" d="M215.8,351.5c0-3.3-1.2-4.9-3.7-4.9c-1,0-2.1,0.2-3.3,0.7l-1.1,0.5c0.1,0.2,0.2,0.6,0.3,1
		c0.1,0.4,0.1,0.8,0.1,1.2v16.3h-4.2v-14.6c0-1.7-0.4-2.9-1.2-3.7c-0.8-0.8-1.9-1.2-3.2-1.2c-1.4,0-2.8,0.4-4.1,1.2v18.4h-4.2v-23.2
		h3.8l0.3,0.7c1.4-0.7,2.9-1.1,4.5-1.1c1.1,0,2.1,0.2,3.1,0.6c1,0.4,1.8,0.9,2.5,1.7c0.4-0.2,1.1-0.6,1.9-1c1.8-0.8,3.6-1.2,5.3-1.2
		c2.2,0,4,0.7,5.4,2c1.4,1.3,2.1,3.2,2.1,5.6v16h-4.2V351.5z"/>
	<path class="st0" d="M235,366.3c-1.4,0.4-2.8,0.6-4.3,0.6c-2.3,0-4.1-0.6-5.4-1.7c-1.3-1.1-2-2.8-2-5.1v-9.5c0-2.5,0.8-4.4,2.3-5.8
		c1.6-1.4,3.6-2.1,6.2-2.1c2.6,0,4.6,0.7,6,2.1s2.2,3.3,2.2,5.7v6.7l-12.4,0.7v1.8c0,1.1,0.3,1.9,0.9,2.5s1.5,0.9,2.7,0.9
		c1.7,0,3.7-0.6,6.1-1.9l1.6,3.6C237.7,365.3,236.4,365.9,235,366.3z M234.5,347.6c-0.8-0.6-1.7-0.9-2.7-0.9c-1.3,0-2.4,0.4-3.1,1.1
		c-0.7,0.7-1.1,1.7-1.1,2.8v3.2l8.1-0.5v-3C235.7,349.1,235.3,348.2,234.5,347.6z"/>
	<path class="st0" d="M244.6,343.1h4l0.2,0.7c1.3-0.7,2.8-1.1,4.4-1.1c1.1,0,2.4,0.2,3.9,0.5l-1,4c-0.8-0.4-1.7-0.6-2.7-0.6
		c-1.3,0-2.3,0.3-3.2,0.9c-0.9,0.6-1.3,1.5-1.3,2.6v16h-4.2V343.1z"/>
	<path class="st0" d="M267.2,366.7c-1.7,0-3.1-0.2-4.2-0.6c-1.8-0.6-3.1-1.6-4-2.8c-0.8-1.3-1.2-3.1-1.2-5.4V352
		c0-3.1,0.8-5.4,2.4-7c1.6-1.6,3.7-2.4,6.2-2.4c2,0,4.1,0.5,6.2,1.5l-1.2,3.5c-1.5-0.6-2.9-0.9-4.3-0.9c-1.6,0-2.9,0.4-3.8,1.3
		c-0.9,0.9-1.4,2.1-1.4,3.7v6.7c0,1.5,0.5,2.5,1.5,3.2c1,0.6,2.3,1,3.9,1c1.4,0,2.8-0.2,4.2-0.6l1.1,4
		C270.8,366.5,269,366.7,267.2,366.7z"/>
	<path class="st0" d="M286.2,366.8c-3.2,0-5.8-0.6-7.7-1.8c-1.9-1.2-2.9-3.4-2.9-6.5v-3.8c0-3.1,1.1-5.1,3.2-6.2
		c1-0.5,2.2-0.7,3.6-0.7c1.2,0,2.5,0.2,3.7,0.6s2.3,0.8,3.1,1.3c0-1.3-0.5-2.3-1.5-2.9c-1-0.6-2.4-1-4.3-1l0.3-3
		c3,0,5.1,0.5,6.5,1.4c1.4,0.9,2.3,2.1,2.6,3.4c0.3,1.3,0.5,3,0.5,5v13.8C290.1,366.6,287.7,366.8,286.2,366.8z M286.3,352.5
		c-1.1-0.4-2.2-0.6-3.2-0.6c-2.2,0-3.3,1-3.3,3.1v3.1c0,3.2,2,4.8,6.1,4.8c1,0,2.1-0.1,3.3-0.3v-8.8
		C288.4,353.3,287.4,352.9,286.3,352.5z"/>
	<path class="st0" d="M302.6,343.6c1.3-0.6,2.8-0.9,4.5-0.9c0.9,0,1.7,0.1,2.5,0.3c0.8,0.2,1.5,0.4,2,0.7v-9.7h4.2v32.4l-2.5,0.2
		c-2,0.2-3.6,0.3-4.7,0.3c-1.1,0-2.2-0.1-3.2-0.3c-1-0.2-2-0.6-3-1.1c-1.1-0.6-2-1.4-2.6-2.5c-0.6-1.1-1-2.4-1-4v-8.7
		C298.7,347,300,344.8,302.6,343.6z M307.5,346.9c-1.4,0-2.5,0.4-3.3,1.1c-0.9,0.7-1.3,1.9-1.3,3.5v7.7c0,1.2,0.5,2.1,1.5,2.8
		c1,0.6,2.4,0.9,4,0.9c0.9,0,2-0.1,3.1-0.4v-14.7C310.3,347.2,309,346.9,307.5,346.9z"/>
	<path class="st0" d="M331.4,366.3c-1.4,0.4-2.8,0.6-4.3,0.6c-2.3,0-4.1-0.6-5.4-1.7c-1.3-1.1-2-2.8-2-5.1v-9.5
		c0-2.5,0.8-4.4,2.3-5.8c1.6-1.4,3.6-2.1,6.2-2.1c2.6,0,4.6,0.7,6,2.1c1.4,1.4,2.2,3.3,2.2,5.7v6.7l-12.4,0.7v1.8
		c0,1.1,0.3,1.9,0.9,2.5c0.6,0.6,1.5,0.9,2.7,0.9c1.7,0,3.7-0.6,6.1-1.9l1.6,3.6C334.1,365.3,332.8,365.9,331.4,366.3z M330.9,347.6
		c-0.8-0.6-1.7-0.9-2.7-0.9c-1.3,0-2.4,0.4-3.1,1.1c-0.7,0.7-1.1,1.7-1.1,2.8v3.2l8.1-0.5v-3C332.1,349.1,331.7,348.2,330.9,347.6z"
		/>
	<path class="st0" d="M341,343.1h4l0.2,0.7c1.3-0.7,2.8-1.1,4.4-1.1c1.1,0,2.4,0.2,3.9,0.5l-1,4c-0.8-0.4-1.7-0.6-2.7-0.6
		c-1.3,0-2.3,0.3-3.2,0.9c-0.9,0.6-1.3,1.5-1.3,2.6v16H341V343.1z"/>
</g>
</svg>
